<svg width="1920" height="384" viewBox="0 0 1920 384" fill="none" xmlns="http://www.w3.org/2000/svg">
<rect width="1920" height="384" fill="#6A4BC1"/>
<path d="M197 39C210.807 39 222 50.1929 222 64V334.223C222 339.745 217.523 344.223 212 344.223H68C62.4773 344.223 58.0002 339.745 58 334.223V64C58 50.1929 69.1929 39 83 39H197ZM82.5 60.417C78.9101 60.417 76 63.3271 76 66.917V325.417C76.0002 329.007 78.9103 331.917 82.5 331.917H196.361C199.951 331.917 202.861 329.007 202.861 325.417V66.917C202.861 63.3272 199.951 60.4171 196.361 60.417H82.5ZM196.361 65.417C197.19 65.4171 197.861 66.0886 197.861 66.917V113.306H91.0273V117.306H197.861V174.806H91.0273V178.806H197.861V236.306H91.0273V240.306H197.861V297.806H91.0273V301.806H197.861V325.417C197.861 326.245 197.19 326.917 196.361 326.917H82.5C81.6717 326.917 81.0002 326.245 81 325.417V271.056H187.833V267.056H81V209.556H187.833V205.556H81V148.056H187.833V144.056H81V86.5557H187.833V82.5557H81V66.917C81 66.0886 81.6716 65.417 82.5 65.417H196.361ZM87.6113 318.027H94.4443V311.194H87.6113V318.027ZM101.277 318.027H108.111V311.194H101.277V318.027ZM114.944 311.194V318.027H121.777V311.194H114.944ZM157.083 288.417H163.917V281.583H157.083V288.417ZM170.75 288.417H177.583V281.583H170.75V288.417ZM184.417 288.417H191.25V281.583H184.417V288.417ZM87.6113 257.667H94.4443V250.833H87.6113V257.667ZM101.277 257.667H108.111V250.833H101.277V257.667ZM114.944 257.667H121.777V250.833H114.944V257.667ZM157.083 226.917H163.917V220.083H157.083V226.917ZM170.75 226.917H177.583V220.083H170.75V226.917ZM184.417 226.917H191.25V220.083H184.417V226.917ZM87.6113 196.167H94.4443V189.333H87.6113V196.167ZM101.277 196.167H108.111V189.333H101.277V196.167ZM114.944 196.167H121.777V189.333H114.944V196.167ZM157.083 165.417H163.917V158.583H157.083V165.417ZM170.75 165.417H177.583V158.583H170.75V165.417ZM184.417 165.417H191.25V158.583H184.417V165.417ZM87.6113 134.667H94.4443V127.833H87.6113V134.667ZM101.277 134.667H108.111V127.833H101.277V134.667ZM114.944 134.667H121.777V127.833H114.944V134.667ZM157.083 103.917H163.917V97.083H157.083V103.917ZM170.75 103.917H177.583V97.083H170.75V103.917ZM184.417 103.917H191.25V97.083H184.417V103.917ZM87.6113 76.583H94.4443V69.75H87.6113V76.583ZM101.277 76.583H108.111V69.75H101.277V76.583ZM114.944 76.583H121.777V69.75H114.944V76.583Z" fill="#9F84D7"/>
<path d="M376 39C384.284 39 391 45.7157 391 54V134C391 142.284 384.284 149 376 149H296C287.716 149 281 142.284 281 134V54C281 45.7157 287.716 39 296 39H376ZM316 57.334C310.477 57.3342 306 61.8112 306 67.334V120.667C306 126.19 310.477 130.667 316 130.667H356C361.523 130.667 366 126.19 366 120.667V67.334C366 61.8112 361.523 57.3342 356 57.334H316ZM356 64C357.841 64.0002 359.333 65.4931 359.333 67.334V120.667C359.333 122.508 357.841 124 356 124H316C314.159 124 312.666 122.508 312.666 120.667V67.334C312.666 65.4931 314.159 64.0002 316 64H356ZM336 84C326.796 84.0002 319.334 91.4617 319.334 100.666C319.334 109.871 326.795 117.333 336 117.333C345.205 117.333 352.667 109.871 352.667 100.666C352.667 91.4617 345.204 84.0002 336 84ZM336 90.666C341.522 90.6662 346 95.1436 346 100.666C346 106.189 341.523 110.666 336 110.666C330.477 110.666 326 106.189 326 100.666C326 95.1436 330.478 90.6662 336 90.666ZM336 97.334C334.159 97.334 332.667 98.826 332.667 100.667C332.667 102.508 334.159 104 336 104H336.033C337.874 104 339.366 102.508 339.366 100.667C339.366 98.826 337.874 97.334 336.033 97.334H336ZM336 70.667C334.159 70.667 332.667 72.1591 332.667 74C332.667 75.8409 334.159 77.333 336 77.333H336.033C337.874 77.333 339.366 75.8409 339.366 74C339.366 72.1591 337.874 70.667 336.033 70.667H336Z" fill="#7C5EC8"/>
<path d="M694 39C702.284 39 709 45.7157 709 54V134C709 142.284 702.284 149 694 149H465C456.716 149 450 142.284 450 134V54C450 45.7157 456.716 39 465 39H694ZM480.577 55.668C475.531 55.5507 472.236 56.8009 470.241 58.8418C469.268 59.8372 468.743 60.8894 468.467 61.749C468.33 62.1741 468.256 62.5488 468.215 62.8457C468.194 62.9945 468.183 63.1258 468.176 63.2354C468.172 63.29 468.17 63.3397 468.169 63.3838C468.168 63.4059 468.167 63.4269 468.167 63.4463V63.4932C468.167 63.4963 468.167 63.5 471.5 63.5H468.167V105.545C468.167 105.565 468.167 105.592 468.168 105.623C468.169 105.685 468.171 105.769 468.175 105.871C468.182 106.076 468.197 106.36 468.225 106.71C468.28 107.41 468.39 108.386 468.605 109.546C469.034 111.853 469.896 114.971 471.65 118.122C473.416 121.292 476.095 124.511 480.124 126.923C484.158 129.337 489.361 130.833 496 130.833C527.502 130.833 571.17 130.792 606.962 130.75C624.858 130.729 640.786 130.708 652.239 130.692C657.966 130.685 662.574 130.678 665.75 130.674C667.338 130.672 668.569 130.67 669.402 130.669C669.819 130.668 670.136 130.667 670.35 130.667H670.67L670.669 130.666C675.088 130.665 679.327 128.91 682.452 125.785C685.578 122.66 687.333 118.42 687.333 114V90.667C687.333 86.2898 686.471 81.9552 684.796 77.9111C683.121 73.867 680.666 70.1919 677.57 67.0967C674.475 64.0014 670.8 61.5462 666.756 59.8711C662.712 58.196 658.377 57.334 654 57.334C649.623 57.334 645.288 58.196 641.244 59.8711C637.2 61.5462 633.525 64.0014 630.43 67.0967C627.334 70.1919 624.879 73.867 623.204 77.9111C621.529 81.9552 620.667 86.2898 620.667 90.667V107.334C620.667 109.986 621.721 112.529 623.596 114.404C625.471 116.28 628.015 117.334 630.667 117.334H634C636.652 117.334 639.196 116.28 641.071 114.404C642.946 112.529 644 109.986 644 107.334V97.334C644 94.682 642.946 92.138 641.071 90.2627C639.196 88.3873 636.652 87.334 634 87.334H627.543C627.84 84.9774 628.451 82.6655 629.363 80.4619C630.703 77.2267 632.667 74.2867 635.144 71.8105C637.62 69.3344 640.56 67.3704 643.795 66.0303C647.03 64.6901 650.498 64 654 64C657.502 64 660.97 64.6901 664.205 66.0303C667.44 67.3704 670.38 69.3344 672.856 71.8105C675.333 74.2867 677.297 77.2267 678.637 80.4619C679.549 82.6655 680.16 84.9774 680.457 87.334H674C671.348 87.334 668.804 88.3873 666.929 90.2627C665.054 92.138 664 94.682 664 97.334V107.334C664 109.986 665.054 112.529 666.929 114.404C668.804 116.28 671.348 117.334 674 117.334H677.333C678.325 117.334 679.303 117.185 680.235 116.902C679.762 118.462 678.911 119.898 677.737 121.071C675.862 122.946 673.319 124 670.667 124H670.662L670.666 126.628C670.662 124 670.661 124 670.66 124H670.58C670.526 124 670.446 124.001 670.34 124.001C670.127 124.001 669.809 124.001 669.393 124.002C668.559 124.003 667.328 124.005 665.74 124.007C662.564 124.011 657.956 124.019 652.229 124.026C640.777 124.042 624.849 124.062 606.954 124.083C571.163 124.125 527.498 124.167 496 124.167C490.39 124.167 486.405 122.912 483.548 121.202C480.686 119.489 478.772 117.207 477.475 114.878C476.167 112.529 475.498 110.147 475.16 108.329C474.993 107.427 474.911 106.684 474.871 106.181C474.851 105.93 474.841 105.74 474.837 105.623C474.835 105.565 474.834 105.524 474.834 105.503L474.833 105.486V63.7451C474.856 63.6962 474.904 63.6084 475.009 63.501C475.264 63.2396 476.469 62.2401 480.423 62.332C484.143 62.4185 485.292 63.3827 485.54 63.6396C485.604 63.706 485.643 63.7613 485.667 63.7998V107.5H489L485.667 107.504V107.54C485.667 107.555 485.668 107.571 485.668 107.589C485.669 107.625 485.67 107.667 485.672 107.715C485.676 107.811 485.684 107.933 485.697 108.074C485.724 108.356 485.775 108.728 485.871 109.16C486.062 110.017 486.445 111.176 487.227 112.349C488.92 114.889 492.029 116.833 497 116.833C502.138 116.833 505.368 114.956 507.159 112.426C507.993 111.249 508.406 110.078 508.612 109.202C508.716 108.761 508.771 108.381 508.8 108.092C508.814 107.947 508.823 107.822 508.828 107.723C508.83 107.673 508.831 107.629 508.832 107.592C508.832 107.573 508.833 107.556 508.833 107.54V107.503L505.5 107.5H508.833V63.5C508.833 63.4371 508.831 63.3742 508.827 63.3115C508.943 63.216 509.207 63.0391 509.736 62.8594C510.535 62.5883 511.868 62.333 514 62.333C517.984 62.333 519.237 63.3264 519.518 63.6064C519.6 63.689 519.645 63.7538 519.667 63.791V107.5H523C519.678 107.5 519.667 107.503 519.667 107.505V107.54C519.667 107.555 519.668 107.571 519.668 107.589C519.669 107.625 519.67 107.668 519.672 107.716C519.676 107.812 519.684 107.933 519.697 108.074C519.724 108.356 519.775 108.728 519.871 109.16C520.062 110.017 520.445 111.176 521.227 112.349C522.92 114.889 526.029 116.833 531 116.833C536.137 116.833 539.366 114.956 541.157 112.427C541.991 111.25 542.404 110.079 542.611 109.203C542.715 108.762 542.771 108.383 542.8 108.094C542.814 107.949 542.822 107.824 542.827 107.725C542.829 107.675 542.831 107.631 542.832 107.594C542.832 107.575 542.833 107.558 542.833 107.542V107.505C542.833 107.503 542.822 107.5 539.5 107.5H542.833V63.5C542.833 63.4371 542.831 63.3742 542.827 63.3115C542.943 63.216 543.207 63.0391 543.736 62.8594C544.535 62.5883 545.868 62.333 548 62.333C551.984 62.333 553.237 63.3265 553.518 63.6064C553.6 63.6891 553.645 63.7538 553.667 63.791V107.5H557L553.667 107.504V107.54C553.667 107.555 553.668 107.571 553.668 107.589C553.669 107.625 553.67 107.667 553.672 107.715C553.676 107.811 553.684 107.933 553.697 108.074C553.724 108.356 553.775 108.728 553.871 109.16C554.062 110.017 554.445 111.176 555.227 112.349C556.92 114.889 560.029 116.833 565 116.833C570.137 116.833 573.366 114.956 575.157 112.427C575.991 111.25 576.404 110.079 576.611 109.203C576.715 108.762 576.771 108.383 576.8 108.094C576.814 107.949 576.822 107.824 576.827 107.725C576.829 107.675 576.831 107.631 576.832 107.594C576.832 107.575 576.833 107.558 576.833 107.542V107.505C576.833 107.503 576.822 107.5 573.5 107.5H576.833V63.5C576.833 63.4371 576.831 63.3742 576.827 63.3115C576.943 63.216 577.207 63.0391 577.736 62.8594C578.535 62.5883 579.868 62.333 582 62.333C585.984 62.333 587.237 63.3265 587.518 63.6064C587.6 63.6891 587.645 63.7538 587.667 63.791V107.5H591L587.667 107.504V107.54C587.667 107.555 587.668 107.571 587.668 107.589C587.669 107.625 587.67 107.667 587.672 107.715C587.676 107.811 587.684 107.933 587.697 108.074C587.724 108.356 587.775 108.728 587.871 109.16C588.062 110.017 588.445 111.176 589.227 112.349C590.92 114.889 594.029 116.833 599 116.833C604.137 116.833 607.366 114.956 609.157 112.427C609.991 111.25 610.404 110.079 610.611 109.203C610.715 108.762 610.771 108.383 610.8 108.094C610.814 107.949 610.822 107.824 610.827 107.725C610.829 107.675 610.831 107.631 610.832 107.594C610.832 107.575 610.833 107.558 610.833 107.542V107.505C610.833 107.503 610.822 107.5 607.5 107.5H610.833V59C610.833 57.1591 609.341 55.667 607.5 55.667C605.659 55.667 604.167 57.1591 604.167 59V107.422C604.163 107.461 604.152 107.55 604.123 107.672C604.064 107.921 603.946 108.25 603.718 108.573C603.384 109.044 602.363 110.167 599 110.167C595.971 110.167 595.08 109.111 594.773 108.651C594.556 108.325 594.438 107.982 594.379 107.715C594.35 107.585 594.338 107.488 594.334 107.441C594.334 107.437 594.333 107.433 594.333 107.43V63.5H591C594.333 63.5 594.333 63.4965 594.333 63.4932V63.4434C594.333 63.4235 594.332 63.4023 594.331 63.3799C594.33 63.3345 594.328 63.2832 594.324 63.2275C594.317 63.1163 594.304 62.9843 594.282 62.835C594.24 62.5368 594.162 62.1634 594.021 61.7422C593.737 60.8881 593.202 59.8621 592.232 58.8926C590.262 56.922 587.014 55.667 582 55.667C576.867 55.667 573.504 56.8642 571.627 59.1162C570.691 60.2394 570.309 61.4223 570.187 62.3682C570.126 62.8316 570.128 63.2332 570.15 63.5439C570.155 63.6043 570.161 63.6616 570.167 63.7158V107.422C570.163 107.461 570.152 107.55 570.123 107.672C570.064 107.921 569.946 108.25 569.718 108.573C569.384 109.044 568.363 110.167 565 110.167C561.972 110.167 561.08 109.111 560.773 108.651C560.556 108.325 560.438 107.982 560.379 107.715C560.35 107.585 560.338 107.488 560.334 107.441C560.334 107.437 560.333 107.433 560.333 107.43V63.5H557C560.333 63.5 560.333 63.4965 560.333 63.4932V63.4434C560.333 63.4235 560.332 63.4023 560.331 63.3799C560.33 63.3345 560.328 63.2832 560.324 63.2275C560.317 63.1163 560.304 62.9843 560.282 62.835C560.24 62.5368 560.162 62.1634 560.021 61.7422C559.737 60.8881 559.202 59.8621 558.232 58.8926C556.262 56.922 553.014 55.667 548 55.667C542.867 55.667 539.504 56.8642 537.627 59.1162C536.691 60.2394 536.309 61.4223 536.187 62.3682C536.126 62.8316 536.128 63.2332 536.15 63.5439C536.155 63.6043 536.161 63.6616 536.167 63.7158V107.422C536.163 107.461 536.152 107.55 536.123 107.672C536.064 107.921 535.946 108.25 535.718 108.573C535.384 109.044 534.363 110.167 531 110.167C527.972 110.167 527.08 109.111 526.773 108.651C526.556 108.325 526.438 107.982 526.379 107.715C526.35 107.585 526.338 107.488 526.334 107.441C526.334 107.437 526.333 107.433 526.333 107.43V63.5H523C526.333 63.5 526.333 63.4965 526.333 63.4932V63.4434C526.333 63.4235 526.332 63.4023 526.331 63.3799C526.33 63.3345 526.328 63.2832 526.324 63.2275C526.317 63.1163 526.304 62.9843 526.282 62.835C526.24 62.5369 526.162 62.1642 526.021 61.7432C525.737 60.889 525.202 59.8623 524.232 58.8926C522.262 56.922 519.014 55.667 514 55.667C508.867 55.667 505.504 56.8642 503.627 59.1162C502.691 60.2394 502.309 61.4223 502.187 62.3682C502.126 62.8315 502.128 63.2332 502.15 63.5439C502.155 63.6043 502.161 63.6616 502.167 63.7158V107.424C502.163 107.463 502.152 107.552 502.123 107.673C502.064 107.922 501.947 108.252 501.719 108.574C501.386 109.044 500.365 110.167 497 110.167C493.972 110.167 493.08 109.111 492.773 108.651C492.556 108.325 492.438 107.982 492.379 107.715C492.35 107.585 492.338 107.488 492.334 107.441C492.334 107.437 492.333 107.433 492.333 107.43V63.5H489C492.333 63.5 492.333 63.4964 492.333 63.4932V63.4443C492.333 63.4248 492.332 63.4039 492.331 63.3818C492.33 63.3373 492.328 63.2868 492.324 63.2324C492.317 63.1238 492.305 62.9956 492.284 62.8506C492.243 62.5605 492.17 62.1982 492.036 61.7891C491.765 60.9603 491.256 59.9627 490.335 59.0088C488.458 57.0652 485.357 55.7791 480.577 55.668ZM634 94C634.884 94 635.732 94.3514 636.357 94.9766C636.982 95.6017 637.333 96.4501 637.333 97.334V107.334C637.333 108.218 636.982 109.065 636.357 109.69C635.732 110.315 634.884 110.667 634 110.667H630.667C629.783 110.667 628.935 110.315 628.31 109.69C627.685 109.065 627.333 108.218 627.333 107.334V94H634ZM680.667 107.334C680.667 108.218 680.315 109.065 679.69 109.69C679.065 110.315 678.217 110.667 677.333 110.667H674C673.116 110.667 672.268 110.315 671.643 109.69C671.018 109.065 670.667 108.218 670.667 107.334V97.334C670.667 96.4501 671.018 95.6017 671.643 94.9766C672.268 94.3514 673.116 94 674 94H680.667V107.334ZM508.757 62.7891C508.758 62.7932 508.759 62.7977 508.76 62.8018L508.773 62.8701C508.777 62.8882 508.78 62.9057 508.782 62.9219C508.774 62.8761 508.765 62.8306 508.755 62.7852C508.755 62.7864 508.757 62.7878 508.757 62.7891ZM542.757 62.7891C542.758 62.7932 542.759 62.7977 542.76 62.8018L542.773 62.8701C542.777 62.8882 542.78 62.9057 542.782 62.9219C542.774 62.8761 542.765 62.8306 542.755 62.7852C542.755 62.7864 542.757 62.7878 542.757 62.7891ZM576.757 62.7891C576.758 62.7932 576.759 62.7977 576.76 62.8018L576.773 62.8701C576.777 62.8882 576.78 62.9057 576.782 62.9219C576.774 62.8761 576.765 62.8306 576.755 62.7852C576.755 62.7864 576.757 62.7878 576.757 62.7891Z" fill="#8E71D0"/>
<g filter="url(#filter0_d_21_3)">
<path d="M284 192V344" stroke="#C0ACE5" stroke-width="7" stroke-linecap="round"/>
<path d="M364 177L364 359" stroke="#C0ACE5" stroke-width="7" stroke-linecap="round"/>
<path d="M304 209L304 327" stroke="#C0ACE5" stroke-width="7" stroke-linecap="round"/>
<path d="M344 209L344 327" stroke="#C0ACE5" stroke-width="7" stroke-linecap="round"/>
<path d="M324 223L324 313" stroke="#C0ACE5" stroke-width="7" stroke-linecap="round"/>
<path d="M384 227L384 309" stroke="#C0ACE5" stroke-width="7" stroke-linecap="round"/>
<path d="M464 212L464 324" stroke="#C0ACE5" stroke-width="7" stroke-linecap="round"/>
<path d="M404 200L404 336" stroke="#C0ACE5" stroke-width="7" stroke-linecap="round"/>
<path d="M444 251L444 285" stroke="#C0ACE5" stroke-width="7" stroke-linecap="round"/>
<path d="M424 212L424 324" stroke="#C0ACE5" stroke-width="7" stroke-linecap="round"/>
<path d="M484 192V344" stroke="#C0ACE5" stroke-width="7" stroke-linecap="round"/>
<path d="M564 177L564 359" stroke="#C0ACE5" stroke-width="7" stroke-linecap="round"/>
<path d="M504 209L504 327" stroke="#C0ACE5" stroke-width="7" stroke-linecap="round"/>
<path d="M544 209L544 327" stroke="#C0ACE5" stroke-width="7" stroke-linecap="round"/>
<path d="M524 223L524 313" stroke="#C0ACE5" stroke-width="7" stroke-linecap="round"/>
<path d="M584 227L584 309" stroke="#C0ACE5" stroke-width="7" stroke-linecap="round"/>
<path d="M664 227L664 309" stroke="#C0ACE5" stroke-width="7" stroke-linecap="round"/>
<path d="M604 200L604 336" stroke="#C0ACE5" stroke-width="7" stroke-linecap="round"/>
<path d="M644 241L644 295" stroke="#C0ACE5" stroke-width="7" stroke-linecap="round"/>
<path d="M624 212L624 324" stroke="#C0ACE5" stroke-width="7" stroke-linecap="round"/>
<path d="M684 192V344" stroke="#C0ACE5" stroke-width="7" stroke-linecap="round"/>
<path d="M764 212L764 324" stroke="#C0ACE5" stroke-width="7" stroke-linecap="round"/>
<path d="M704 220L704 316" stroke="#C0ACE5" stroke-width="7" stroke-linecap="round"/>
<path d="M744 200L744 336" stroke="#C0ACE5" stroke-width="7" stroke-linecap="round"/>
<path d="M724 209L724 327" stroke="#C0ACE5" stroke-width="7" stroke-linecap="round"/>
<path d="M784 227L784 309" stroke="#C0ACE5" stroke-width="7" stroke-linecap="round"/>
<path d="M864 212L864 324" stroke="#C0ACE5" stroke-width="7" stroke-linecap="round"/>
<path d="M804 200L804 336" stroke="#C0ACE5" stroke-width="7" stroke-linecap="round"/>
<path d="M844 251L844 285" stroke="#C0ACE5" stroke-width="7" stroke-linecap="round"/>
<path d="M824 212L824 324" stroke="#C0ACE5" stroke-width="7" stroke-linecap="round"/>
<path d="M884 186L884 350" stroke="#C0ACE5" stroke-width="7" stroke-linecap="round"/>
<path d="M964 195L964 341" stroke="#C0ACE5" stroke-width="7" stroke-linecap="round"/>
<path d="M904 206L904 330" stroke="#C0ACE5" stroke-width="7" stroke-linecap="round"/>
<path d="M944 209L944 327" stroke="#C0ACE5" stroke-width="7" stroke-linecap="round"/>
<path d="M924 215L924 321" stroke="#C0ACE5" stroke-width="7" stroke-linecap="round"/>
<path d="M984 230L984 306" stroke="#C0ACE5" stroke-width="7" stroke-linecap="round"/>
<path d="M1064 251L1064 285" stroke="#C0ACE5" stroke-width="7" stroke-linecap="round"/>
<path d="M1004 186L1004 350" stroke="#C0ACE5" stroke-width="7" stroke-linecap="round"/>
<path d="M1044 241L1044 295" stroke="#C0ACE5" stroke-width="7" stroke-linecap="round"/>
<path d="M1024 212L1024 324" stroke="#C0ACE5" stroke-width="7" stroke-linecap="round"/>
<path d="M1084 200L1084 336" stroke="#C0ACE5" stroke-width="7" stroke-linecap="round"/>
<path d="M1164 241L1164 295" stroke="#C0ACE5" stroke-width="7" stroke-linecap="round"/>
<path d="M1104 209L1104 327" stroke="#C0ACE5" stroke-width="7" stroke-linecap="round"/>
<path d="M1144 209L1144 327" stroke="#C0ACE5" stroke-width="7" stroke-linecap="round"/>
<path d="M1124 223L1124 313" stroke="#C0ACE5" stroke-width="7" stroke-linecap="round"/>
<path d="M1184 227L1184 309" stroke="#C0ACE5" stroke-width="7" stroke-linecap="round"/>
<path d="M1264 200L1264 336" stroke="#C0ACE5" stroke-width="7" stroke-linecap="round"/>
<path d="M1204 245L1204 291" stroke="#C0ACE5" stroke-width="7" stroke-linecap="round"/>
<path d="M1244 251L1244 285" stroke="#C0ACE5" stroke-width="7" stroke-linecap="round"/>
<path d="M1224 195L1224 341" stroke="#C0ACE5" stroke-width="7" stroke-linecap="round"/>
<path d="M1284 209L1284 327" stroke="#C0ACE5" stroke-width="7" stroke-linecap="round"/>
<path d="M1364 241L1364 295" stroke="#C0ACE5" stroke-width="7" stroke-linecap="round"/>
<path d="M1304 209L1304 327" stroke="#C0ACE5" stroke-width="7" stroke-linecap="round"/>
<path d="M1344 209L1344 327" stroke="#C0ACE5" stroke-width="7" stroke-linecap="round"/>
<path d="M1324 223L1324 313" stroke="#C0ACE5" stroke-width="7" stroke-linecap="round"/>
<path d="M1384 227L1384 309" stroke="#C0ACE5" stroke-width="7" stroke-linecap="round"/>
<path d="M1464 227L1464 309" stroke="#C0ACE5" stroke-width="7" stroke-linecap="round"/>
<path d="M1404 200L1404 336" stroke="#C0ACE5" stroke-width="7" stroke-linecap="round"/>
<path d="M1444 241L1444 295" stroke="#C0ACE5" stroke-width="7" stroke-linecap="round"/>
<path d="M1424 212L1424 324" stroke="#C0ACE5" stroke-width="7" stroke-linecap="round"/>
<path d="M1484 192V344" stroke="#C0ACE5" stroke-width="7" stroke-linecap="round"/>
<path d="M1564 212L1564 324" stroke="#C0ACE5" stroke-width="7" stroke-linecap="round"/>
<path d="M1504 220L1504 316" stroke="#C0ACE5" stroke-width="7" stroke-linecap="round"/>
<path d="M1544 235L1544 301" stroke="#C0ACE5" stroke-width="7" stroke-linecap="round"/>
<path d="M1524 209L1524 327" stroke="#C0ACE5" stroke-width="7" stroke-linecap="round"/>
<path d="M1584 227L1584 309" stroke="#C0ACE5" stroke-width="7" stroke-linecap="round"/>
<path d="M1664 212L1664 324" stroke="#C0ACE5" stroke-width="7" stroke-linecap="round"/>
<path d="M1604 200L1604 336" stroke="#C0ACE5" stroke-width="7" stroke-linecap="round"/>
<path d="M1644 251L1644 285" stroke="#C0ACE5" stroke-width="7" stroke-linecap="round"/>
<path d="M1624 212L1624 324" stroke="#C0ACE5" stroke-width="7" stroke-linecap="round"/>
<path d="M1684 186L1684 350" stroke="#C0ACE5" stroke-width="7" stroke-linecap="round"/>
<path d="M1764 195L1764 341" stroke="#C0ACE5" stroke-width="7" stroke-linecap="round"/>
<path d="M1704 206L1704 330" stroke="#C0ACE5" stroke-width="7" stroke-linecap="round"/>
<path d="M1744 209L1744 327" stroke="#C0ACE5" stroke-width="7" stroke-linecap="round"/>
<path d="M1724 215L1724 321" stroke="#C0ACE5" stroke-width="7" stroke-linecap="round"/>
<path d="M1784 230L1784 306" stroke="#C0ACE5" stroke-width="7" stroke-linecap="round"/>
<path d="M1864 251L1864 285" stroke="#C0ACE5" stroke-width="7" stroke-linecap="round"/>
<path d="M1804 186L1804 350" stroke="#C0ACE5" stroke-width="7" stroke-linecap="round"/>
<path d="M1844 241L1844 295" stroke="#C0ACE5" stroke-width="7" stroke-linecap="round"/>
<path d="M1824 212L1824 324" stroke="#C0ACE5" stroke-width="7" stroke-linecap="round"/>
</g>
<path d="M863 39C871.284 39 878 45.7157 878 54V134C878 142.284 871.284 149 863 149H783C774.716 149 768 142.284 768 134V54C768 45.7157 774.716 39 783 39H863ZM836.333 64C831.722 64.0001 827.792 65.6252 824.542 68.875C821.292 72.125 819.667 76.0559 819.667 80.667V107.333C819.667 110.111 818.694 112.473 816.75 114.417C814.806 116.361 812.445 117.333 809.667 117.333C806.889 117.333 804.527 116.361 802.583 114.417C800.639 112.473 799.667 110.111 799.667 107.333V84H803C805.833 84 808.208 83.0417 810.125 81.125C812.042 79.2083 813 76.8333 813 74C813 71 812.083 68.5833 810.25 66.75C808.417 64.9167 806 64 803 64C800 64 797.583 65.0276 795.75 67.083C793.917 69.1386 793 71.667 793 74.667V107.333C793 111.944 794.625 115.875 797.875 119.125C801.125 122.375 805.056 124 809.667 124C814.278 124 818.208 122.375 821.458 119.125C824.708 115.875 826.333 111.944 826.333 107.333V80.667C826.333 77.8892 827.306 75.5275 829.25 73.583C831.194 71.6387 833.555 70.6671 836.333 70.667C839.111 70.667 841.473 71.6386 843.417 73.583C845.361 75.5275 846.333 77.8892 846.333 80.667V104H843C840.167 104 837.792 104.958 835.875 106.875C833.958 108.792 833 111.167 833 114C833 116.833 833.848 119.208 835.542 121.125C837.236 123.041 839.5 124 842.333 124C845.166 124 847.653 123.042 849.792 121.125C851.931 119.208 853 116.833 853 114V80.667C853 76.0559 851.375 72.125 848.125 68.875C844.875 65.625 840.944 64 836.333 64ZM846.333 110.667V114C846.333 114.944 846.014 115.736 845.375 116.375C844.736 117.014 843.944 117.333 843 117.333C842.056 117.333 841.264 117.014 840.625 116.375C839.986 115.736 839.667 114.944 839.667 114C839.667 113.056 839.986 112.264 840.625 111.625C841.264 110.986 842.056 110.667 843 110.667H846.333ZM803 70.667C803.944 70.667 804.736 70.9861 805.375 71.625C806.014 72.2639 806.333 73.0556 806.333 74C806.333 74.9444 806.014 75.7361 805.375 76.375C804.736 77.0139 803.944 77.333 803 77.333H799.667V74C799.667 73.0556 799.986 72.2639 800.625 71.625C801.264 70.9861 802.056 70.667 803 70.667Z" fill="#9F84D7"/>
<path d="M1032 39C1040.28 39 1047 45.7157 1047 54V134C1047 142.284 1040.28 149 1032 149H952C943.716 149 937 142.284 937 134V54C937 45.7157 943.716 39 952 39H1032ZM988.295 64.3496C987.376 64.0085 986.385 63.9103 985.417 64.0654L985.211 64.1025C984.11 64.3211 983.097 64.8612 982.303 65.6543L982.301 65.6562L971.021 76.9326L971.013 76.9404C970.888 77.0654 970.74 77.1649 970.577 77.2324C970.414 77.2998 970.24 77.3345 970.063 77.334H962C960.232 77.3341 958.536 78.036 957.286 79.2861C956.036 80.5363 955.334 82.2321 955.334 84V104C955.334 105.768 956.036 107.465 957.286 108.715C958.536 109.965 960.232 110.667 962 110.667H970.063C970.24 110.667 970.414 110.701 970.577 110.769C970.74 110.836 970.888 110.936 971.013 111.061L971.02 111.067L982.294 122.344V122.345C983.089 123.141 984.103 123.684 985.206 123.904C986.309 124.124 987.454 124.012 988.493 123.581C989.532 123.15 990.421 122.42 991.045 121.484C991.669 120.548 992.001 119.447 992 118.322V69.6689C991.998 68.6163 991.705 67.5859 991.153 66.6924L991.04 66.5156L990.92 66.3428C990.345 65.5493 989.574 64.9178 988.684 64.5098L988.491 64.4258L988.295 64.3496ZM1018.9 70.4297C1017.6 69.128 1015.49 69.1279 1014.19 70.4297C1012.89 71.7314 1012.89 73.8428 1014.19 75.1445C1016.67 77.6207 1018.63 80.5607 1019.97 83.7959C1021.31 87.0309 1022 90.4985 1022 94C1022 97.5017 1021.31 100.97 1019.97 104.205C1018.63 107.44 1016.67 110.38 1014.19 112.856C1012.89 114.158 1012.89 116.269 1014.19 117.57C1015.49 118.872 1017.6 118.873 1018.9 117.571C1022 114.476 1024.45 110.801 1026.13 106.757C1027.81 102.713 1028.67 98.3773 1028.67 94C1028.67 89.6229 1027.8 85.2881 1026.13 81.2441C1024.45 77.2001 1022 73.5249 1018.9 70.4297ZM985.334 115.956L975.734 106.354C974.99 105.606 974.104 105.013 973.129 104.609C972.154 104.206 971.109 103.998 970.054 104H962V84H970.054V83.999C971.109 84.0008 972.154 83.7954 973.129 83.3916C974.107 82.9865 974.994 82.3903 975.74 81.6396L985.334 72.0498V115.956ZM1008 82C1006.9 80.5274 1004.81 80.2286 1003.33 81.333C1001.86 82.4375 1001.56 84.5273 1002.67 86C1004.4 88.3079 1005.33 91.1151 1005.33 94C1005.33 96.8849 1004.4 99.6921 1002.67 102C1001.56 103.473 1001.86 105.562 1003.33 106.667C1004.81 107.771 1006.9 107.473 1008 106C1010.6 102.538 1012 98.3273 1012 94C1012 89.6727 1010.6 85.4619 1008 82Z" fill="#8E71D0" fill-opacity="0.8"/>
<path d="M1201 39C1209.28 39 1216 45.7157 1216 54V134C1216 142.284 1209.28 149 1201 149H1121C1112.72 149 1106 142.284 1106 134V54C1106 45.7157 1112.72 39 1121 39H1201ZM1174.33 57.334C1163.29 57.334 1154.33 66.2883 1154.33 77.334C1154.33 77.6305 1154.34 77.9254 1154.35 78.2188L1135 104.668C1134.06 105.952 1133.61 107.531 1133.73 109.118C1133.83 110.378 1134.28 111.576 1135.03 112.579C1133.59 115.438 1133.62 118.915 1134.45 121.739C1135.61 125.685 1138.69 129.746 1143.77 130.618C1148.55 131.439 1152.84 129.09 1155.96 127.361C1157.69 126.407 1159.14 125.57 1160.61 124.934C1162.05 124.311 1163.25 124 1164.33 124C1168.03 124 1171.14 125.326 1174.14 127.344C1175.66 128.373 1177.73 127.969 1178.76 126.442C1179.79 124.916 1179.39 122.844 1177.86 121.815C1174.19 119.34 1169.79 117.333 1164.33 117.333C1161.99 117.333 1159.84 118.004 1157.96 118.816C1156.12 119.616 1154.29 120.667 1152.74 121.528C1149.3 123.43 1147.03 124.414 1144.9 124.048C1143.07 123.733 1141.53 122.179 1140.85 119.864C1140.59 118.992 1140.51 118.19 1140.54 117.487C1141.21 117.765 1141.92 117.936 1142.66 117.984C1144.27 118.091 1145.86 117.609 1147.15 116.629L1147.15 116.628L1172.53 97.252C1173.13 97.3049 1173.73 97.334 1174.33 97.334C1185.38 97.3336 1194.33 88.3792 1194.33 77.334C1194.33 66.2885 1185.38 57.3343 1174.33 57.334ZM1156.55 86.5C1158.38 90.0262 1161.22 92.9399 1164.68 94.8545L1143.1 111.33L1143.1 111.331L1140.38 108.608L1140.38 108.605H1140.38L1156.55 86.5ZM1174.33 64C1181.7 64.0004 1187.67 69.9704 1187.67 77.334C1187.67 84.6973 1181.7 90.6666 1174.33 90.667C1166.97 90.667 1161 84.6975 1161 77.334C1161 69.9702 1166.97 64 1174.33 64Z" fill="#7C5EC8"/>
<path d="M1688 39C1696.28 39 1703 45.7157 1703 54V134C1703 142.284 1696.28 149 1688 149H1608C1599.72 149 1593 142.284 1593 134V54C1593 45.7157 1599.72 39 1608 39H1688ZM1617.02 58.3096C1615.72 57.0078 1613.61 57.0078 1612.31 58.3096C1611.01 59.6113 1611.01 61.7227 1612.31 63.0244L1621.97 72.6885C1618.44 75.3486 1615.6 78.8628 1613.74 82.9316C1611.26 88.3697 1610.68 94.4835 1612.09 100.292C1613.5 106.1 1616.82 111.267 1621.52 114.962C1626.22 118.657 1632.02 120.666 1638 120.667H1666.33V120.666C1667.45 120.666 1668.56 120.565 1669.65 120.364L1678.98 129.69C1680.28 130.992 1682.39 130.992 1683.69 129.69C1684.99 128.389 1684.99 126.278 1683.69 124.977L1629.92 71.2021C1629.75 70.9932 1629.57 70.8085 1629.36 70.6484L1617.02 58.3096ZM1663.29 114H1638C1633.52 113.999 1629.17 112.493 1625.64 109.722C1622.12 106.951 1619.63 103.075 1618.57 98.7188C1617.51 94.3626 1617.95 89.7776 1619.81 85.6992C1621.33 82.358 1623.74 79.5151 1626.75 77.4658L1663.29 114ZM1645.39 68.377C1643.62 67.8673 1641.77 68.8883 1641.26 70.6572C1640.75 72.4262 1641.78 74.2735 1643.54 74.7832C1646.77 75.7114 1649.7 77.4345 1652.08 79.7939C1654.46 82.1534 1656.21 85.0737 1657.17 88.2861C1657.59 89.6985 1658.89 90.667 1660.37 90.667H1666.33C1668.21 90.667 1670.07 91.1206 1671.73 91.9902C1673.4 92.86 1674.83 94.1201 1675.9 95.6621C1676.98 97.2041 1677.67 98.9833 1677.91 100.848C1678.14 102.712 1677.93 104.607 1677.28 106.37C1676.64 108.097 1677.53 110.013 1679.25 110.65C1680.98 111.287 1682.9 110.404 1683.53 108.677C1684.56 105.905 1684.89 102.928 1684.52 99.998C1684.14 97.0684 1683.06 94.2728 1681.37 91.8496C1679.68 89.4267 1677.43 87.4477 1674.82 86.0811C1672.2 84.7144 1669.29 84.0001 1666.33 84H1662.73C1661.37 80.6546 1659.35 77.6099 1656.78 75.0576C1653.6 71.9117 1649.68 69.6145 1645.39 68.377Z" fill="#9F84D7"/>
<path d="M1857 39C1865.28 39 1872 45.7157 1872 54V134C1872 142.284 1865.28 149 1857 149H1777C1768.72 149 1762 142.284 1762 134V54C1762 45.7157 1768.72 39 1777 39H1857ZM1790.33 70.667C1787.68 70.667 1785.14 71.7204 1783.26 73.5957C1781.39 75.4711 1780.33 78.0148 1780.33 80.667V120.667C1780.33 123.319 1781.39 125.862 1783.26 127.737C1785.14 129.613 1787.68 130.667 1790.33 130.667H1830.33C1832.99 130.667 1835.53 129.613 1837.4 127.737C1839.28 125.862 1840.33 123.319 1840.33 120.667V104C1840.33 102.232 1839.63 100.536 1838.38 99.2861C1837.13 98.036 1835.43 97.3331 1833.67 97.333H1813.67V77.333C1813.67 75.5652 1812.96 73.8693 1811.71 72.6191C1810.46 71.369 1808.77 70.6671 1807 70.667H1790.33ZM1807 124H1790.33C1789.45 124 1788.6 123.648 1787.98 123.023C1787.35 122.398 1787 121.551 1787 120.667V104H1807V124ZM1833.67 120.667C1833.67 121.551 1833.32 122.398 1832.69 123.023C1832.07 123.648 1831.22 124 1830.33 124H1813.67V104H1833.67V120.667ZM1807 97.333H1787V80.667C1787 79.7829 1787.35 78.9347 1787.98 78.3096C1788.6 77.6846 1789.45 77.333 1790.33 77.333H1807V97.333ZM1827 57.334C1823.32 57.3342 1820.33 60.3184 1820.33 64V84C1820.33 87.6816 1823.32 90.6668 1827 90.667H1847C1850.68 90.6668 1853.67 87.6816 1853.67 84V64C1853.67 60.3184 1850.68 57.3342 1847 57.334H1827ZM1847 64V84H1827V64H1847Z" fill="#8E71D0"/>
<path d="M1519 39C1527.28 39 1534 45.7157 1534 54V134C1534 142.284 1527.28 149 1519 149H1290C1281.72 149 1275 142.284 1275 134V54C1275 45.7157 1281.72 39 1290 39H1519ZM1498.14 120.032C1497.98 119.992 1497.81 119.988 1497.64 120.021C1497.42 120.064 1497.22 120.172 1497.06 120.33L1497.06 120.331L1494.8 122.586L1494.8 122.588C1494.78 122.613 1494.75 122.633 1494.71 122.646C1494.68 122.66 1494.65 122.666 1494.61 122.666H1493C1492.65 122.666 1492.31 122.807 1492.06 123.057C1491.81 123.307 1491.67 123.646 1491.67 124V128C1491.67 128.353 1491.81 128.692 1492.06 128.942C1492.31 129.192 1492.65 129.333 1493 129.333H1494.61C1494.65 129.333 1494.68 129.34 1494.71 129.354C1494.75 129.367 1494.78 129.387 1494.8 129.412L1494.8 129.413L1497.06 131.669L1497.19 131.778C1497.32 131.878 1497.48 131.947 1497.64 131.98C1497.86 132.024 1498.09 132.002 1498.3 131.916C1498.51 131.83 1498.68 131.683 1498.81 131.496C1498.9 131.356 1498.96 131.197 1498.99 131.031L1499 130.864V121.134C1499 120.966 1498.96 120.799 1498.89 120.648L1498.81 120.503L1498.7 120.371C1498.63 120.289 1498.54 120.217 1498.45 120.16L1498.3 120.085L1498.14 120.032ZM1504.38 121.286C1504.12 121.026 1503.7 121.026 1503.44 121.286C1503.18 121.547 1503.18 121.969 1503.44 122.229C1503.93 122.725 1504.33 123.313 1504.59 123.96C1504.86 124.607 1505 125.3 1505 126C1505 126.7 1504.86 127.394 1504.59 128.041C1504.33 128.688 1503.93 129.276 1503.44 129.771C1503.18 130.032 1503.18 130.455 1503.44 130.715C1503.7 130.975 1504.12 130.975 1504.38 130.715C1505 130.096 1505.49 129.36 1505.83 128.552C1506.16 127.743 1506.33 126.875 1506.33 126C1506.33 125.125 1506.16 124.258 1505.83 123.449C1505.49 122.64 1505 121.905 1504.38 121.286ZM1497.67 130.391L1495.75 128.472H1495.75C1495.6 128.322 1495.42 128.202 1495.23 128.121C1495.03 128.04 1494.82 128 1494.61 128H1493V124H1494.61V123.999C1494.82 123.999 1495.03 123.959 1495.23 123.878C1495.42 123.797 1495.6 123.679 1495.75 123.529L1497.67 121.609V130.391ZM1502.2 123.6C1501.98 123.305 1501.56 123.246 1501.27 123.467C1500.97 123.688 1500.91 124.106 1501.13 124.4C1501.48 124.862 1501.67 125.423 1501.67 126C1501.67 126.577 1501.48 127.138 1501.13 127.6C1500.91 127.894 1500.97 128.312 1501.27 128.533C1501.56 128.754 1501.98 128.695 1502.2 128.4C1502.72 127.708 1503 126.865 1503 126C1503 125.135 1502.72 124.292 1502.2 123.6ZM1296.5 115C1294.57 115 1293 116.567 1293 118.5C1293 120.433 1294.57 122 1296.5 122H1459.5C1461.43 122 1463 120.433 1463 118.5C1463 116.567 1461.43 115 1459.5 115H1296.5ZM1499 59C1496.79 59 1495 60.7909 1495 63V111C1495 113.209 1496.79 115 1499 115C1501.21 115 1503 113.209 1503 111V63C1503 60.7909 1501.21 59 1499 59ZM1499 68C1500.1 68 1501 68.8954 1501 70V111C1501 112.105 1500.1 113 1499 113C1497.9 113 1497 112.105 1497 111V70C1497 68.8954 1497.9 68 1499 68ZM1371.35 68.666C1370.64 68.6636 1369.95 68.8468 1369.34 69.1973C1368.73 69.5478 1368.22 70.0532 1367.87 70.6621C1367.52 71.271 1367.33 71.9626 1367.33 72.666V91.333L1367.34 91.5957C1367.38 92.2078 1367.56 92.8039 1367.87 93.3369C1368.22 93.9461 1368.73 94.4522 1369.34 94.8027C1369.95 95.1533 1370.64 95.3364 1371.35 95.334C1372.05 95.3315 1372.74 95.1436 1373.35 94.7891L1389.35 85.4551L1389.35 85.4561C1389.95 85.1037 1390.46 84.5982 1390.8 83.9912C1391.15 83.3842 1391.34 82.6961 1391.33 81.9961C1391.33 81.2961 1391.15 80.6084 1390.8 80.002C1390.45 79.3961 1389.95 78.8923 1389.34 78.541H1389.35L1373.35 69.2109C1372.74 68.8563 1372.05 68.6685 1371.35 68.666ZM1314 70C1313.26 70 1312.67 70.5968 1312.67 71.333V92.666C1312.67 93.4024 1313.26 94 1314 94C1314.74 94 1315.33 93.4024 1315.33 92.666V71.333C1315.33 70.5968 1314.74 70 1314 70ZM1442 70C1441.26 70 1440.67 70.5968 1440.67 71.333V92.666C1440.67 93.4024 1441.26 94 1442 94C1442.74 94 1443.33 93.4024 1443.33 92.666V71.333C1443.33 70.5968 1442.74 70 1442 70ZM1335.28 70C1334.58 70.0089 1333.88 70.2053 1333.28 70.5693L1319.94 78.5693C1319.35 78.9249 1318.86 79.4287 1318.52 80.0303C1318.18 80.6319 1318 81.3118 1318 82.0029C1318 82.6942 1318.18 83.3744 1318.52 83.9756C1318.86 84.5759 1319.35 85.0771 1319.95 85.4316V85.4326L1333.28 93.4297C1333.88 93.7938 1334.58 93.9901 1335.28 93.999C1335.99 94.0079 1336.69 93.8291 1337.3 93.4805C1337.92 93.1318 1338.43 92.626 1338.79 92.0146C1339.15 91.4033 1339.33 90.7077 1339.33 90V74C1339.33 73.2923 1339.15 72.5967 1338.79 71.9854C1338.43 71.3739 1337.92 70.8673 1337.3 70.5186C1336.69 70.1701 1335.99 69.9911 1335.28 70ZM1420.72 70C1420.01 69.9911 1419.31 70.1701 1418.7 70.5186C1418.08 70.8673 1417.57 71.3739 1417.21 71.9854C1416.85 72.5968 1416.67 73.2923 1416.67 74V90C1416.67 90.7077 1416.85 91.4033 1417.21 92.0146C1417.57 92.626 1418.08 93.1318 1418.7 93.4805C1419.31 93.8291 1420.01 94.0079 1420.72 93.999C1421.42 93.9901 1422.12 93.7939 1422.72 93.4297L1436.05 85.4326L1436.05 85.4316C1436.65 85.0771 1437.14 84.5762 1437.48 83.9756C1437.82 83.3744 1438 82.6943 1438 82.0029C1438 81.3118 1437.82 80.6319 1437.48 80.0303C1437.14 79.4287 1436.65 78.9249 1436.06 78.5693L1422.72 70.5693C1422.12 70.2053 1421.42 70.0089 1420.72 70ZM1371.34 71.332C1371.57 71.3329 1371.8 71.3955 1372.01 71.5137V71.5146L1388 80.8447L1388 80.8467C1388.21 80.9638 1388.37 81.132 1388.49 81.334C1388.61 81.536 1388.67 81.7649 1388.67 81.998C1388.67 82.2312 1388.61 82.4608 1388.49 82.6631C1388.38 82.8652 1388.21 83.0339 1388.01 83.1514L1388.01 83.1523L1372.01 92.4854C1371.8 92.6035 1371.57 92.6661 1371.34 92.667C1371.1 92.6677 1370.87 92.6068 1370.67 92.4902C1370.47 92.3734 1370.3 92.2049 1370.18 92.002C1370.06 91.799 1370 91.5684 1370 91.334V72.666C1370 72.4315 1370.06 72.201 1370.18 71.998C1370.3 71.7951 1370.47 71.6266 1370.67 71.5098C1370.87 71.3932 1371.1 71.3313 1371.34 71.332ZM1335.32 72.666C1335.55 72.663 1335.78 72.7237 1335.99 72.8398C1336.2 72.956 1336.37 73.1245 1336.49 73.3281C1336.6 73.5319 1336.67 73.7642 1336.67 74V90C1336.67 90.2356 1336.6 90.4673 1336.49 90.6709C1336.37 90.8747 1336.2 91.0439 1335.99 91.1602C1335.78 91.2764 1335.55 91.336 1335.32 91.333C1335.08 91.33 1334.85 91.264 1334.65 91.1426L1321.32 83.1455L1321.32 83.1445L1321.17 83.0469C1321.04 82.9405 1320.93 82.8084 1320.84 82.6582C1320.73 82.4579 1320.67 82.2312 1320.67 82.001C1320.67 81.7708 1320.73 81.5441 1320.84 81.3438C1320.95 81.1433 1321.12 80.975 1321.31 80.8564L1334.65 72.8564C1334.85 72.7351 1335.08 72.669 1335.32 72.666ZM1420.68 72.666C1420.92 72.669 1421.15 72.7351 1421.35 72.8564L1434.69 80.8564H1434.69C1434.88 80.9749 1435.05 81.1434 1435.16 81.3438C1435.27 81.5441 1435.33 81.7708 1435.33 82.001C1435.33 82.2314 1435.27 82.4579 1435.16 82.6582C1435.05 82.8584 1434.88 83.0264 1434.68 83.1445L1434.68 83.1455L1421.35 91.1426C1421.15 91.264 1420.92 91.33 1420.68 91.333C1420.45 91.336 1420.22 91.2764 1420.01 91.1602C1419.8 91.0439 1419.63 90.8747 1419.51 90.6709C1419.4 90.4673 1419.33 90.2356 1419.33 90V74C1419.33 73.7642 1419.4 73.5319 1419.51 73.3281C1419.63 73.1244 1419.8 72.9561 1420.01 72.8398C1420.22 72.7236 1420.45 72.663 1420.68 72.666Z" fill="#8E71D0"/>
<defs>
<filter id="filter0_d_21_3" x="276.5" y="169.5" width="1595" height="197" filterUnits="userSpaceOnUse" color-interpolation-filters="sRGB">
<feFlood flood-opacity="0" result="BackgroundImageFix"/>
<feColorMatrix in="SourceAlpha" type="matrix" values="0 0 0 0 0 0 0 0 0 0 0 0 0 0 0 0 0 0 127 0" result="hardAlpha"/>
<feOffset/>
<feGaussianBlur stdDeviation="2"/>
<feComposite in2="hardAlpha" operator="out"/>
<feColorMatrix type="matrix" values="0 0 0 0 0 0 0 0 0 0 0 0 0 0 0 0 0 0 0.25 0"/>
<feBlend mode="normal" in2="BackgroundImageFix" result="effect1_dropShadow_21_3"/>
<feBlend mode="normal" in="SourceGraphic" in2="effect1_dropShadow_21_3" result="shape"/>
</filter>
</defs>
</svg>
