<svg width="150" height="150" viewBox="0 0 150 150" fill="none" xmlns="http://www.w3.org/2000/svg">
<rect width="150" height="150" fill="#1E1E1E"/>
<path d="M59.6979 68.6354C55.4549 64.3924 53.3333 59.2917 53.3333 53.3333C53.3333 47.375 55.4549 42.2743 59.6979 38.0312C63.941 33.7882 69.0417 31.6667 75 31.6667C80.9583 31.6667 86.059 33.7882 90.3021 38.0312C94.5451 42.2743 96.6667 47.375 96.6667 53.3333C96.6667 59.2917 94.5451 64.3924 90.3021 68.6354C86.059 72.8785 80.9583 75 75 75C69.0417 75 63.941 72.8785 59.6979 68.6354ZM31.6667 107.5V103.167C31.6667 100.097 32.4566 97.276 34.0365 94.7031C35.6163 92.1302 37.7153 90.1667 40.3333 88.8125C45.9306 86.0139 51.6181 83.9149 57.3958 82.5156C63.1736 81.1163 69.0417 80.4167 75 80.4167C80.9583 80.4167 86.8264 81.1163 92.6042 82.5156C98.3819 83.9149 104.069 86.0139 109.667 88.8125C112.285 90.1667 114.384 92.1302 115.964 94.7031C117.543 97.276 118.333 100.097 118.333 103.167V107.5C118.333 110.479 117.273 113.03 115.151 115.151C113.03 117.273 110.479 118.333 107.5 118.333H42.5C39.5208 118.333 36.9705 117.273 34.849 115.151C32.7274 113.03 31.6667 110.479 31.6667 107.5Z" fill="#DFDFDF"/>
</svg>
