<svg width="1024" height="1024" viewBox="0 0 1024 1024" fill="none" xmlns="http://www.w3.org/2000/svg">
<circle cx="512" cy="512" r="512" fill="#6A4BC1"/>
<path d="M355.333 794H292.667C275.433 794 260.681 787.864 248.408 775.592C236.136 763.319 230 748.567 230 731.333V512C230 472.833 237.442 436.147 252.325 401.942C267.208 367.736 287.314 337.969 312.642 312.642C337.969 287.314 367.736 267.208 401.942 252.325C436.147 237.442 472.833 230 512 230C551.167 230 587.853 237.442 622.058 252.325C656.264 267.208 686.031 287.314 711.358 312.642C736.686 337.969 756.792 367.736 771.675 401.942C786.558 436.147 794 472.833 794 512V731.333C794 748.567 787.864 763.319 775.592 775.592C763.319 787.864 748.567 794 731.333 794H668.667C651.433 794 636.681 787.864 624.408 775.592C612.136 763.319 606 748.567 606 731.333V606C606 588.767 612.136 574.014 624.408 561.742C636.681 549.469 651.433 543.333 668.667 543.333H731.333V512C731.333 450.9 710.053 399.069 667.492 356.508C624.931 313.947 573.1 292.667 512 292.667C450.9 292.667 399.069 313.947 356.508 356.508C313.947 399.069 292.667 450.9 292.667 512V543.333H355.333C372.567 543.333 387.319 549.469 399.592 561.742C411.864 574.014 418 588.767 418 606V731.333C418 748.567 411.864 763.319 399.592 775.592C387.319 787.864 372.567 794 355.333 794Z" fill="white"/>
<circle cx="761.5" cy="761.5" r="256.5" fill="#22946E" stroke="#47D5A6" stroke-width="12"/>
<path d="M743.708 835.78V636.958C743.708 631.917 745.413 627.692 748.823 624.282C752.234 620.872 756.459 619.167 761.5 619.167C766.541 619.167 770.767 620.872 774.177 624.282C777.587 627.692 779.292 631.917 779.292 636.958V835.78L866.471 748.601C870.029 745.043 874.181 743.338 878.925 743.486C883.669 743.634 887.821 745.488 891.379 749.046C894.641 752.604 896.346 756.756 896.494 761.5C896.643 766.244 894.938 770.396 891.379 773.954L773.954 891.379C772.175 893.158 770.248 894.419 768.172 895.16C766.096 895.901 763.872 896.272 761.5 896.272C759.128 896.272 756.904 895.901 754.828 895.16C752.752 894.419 750.825 893.158 749.046 891.379L631.621 773.954C628.359 770.692 626.728 766.615 626.728 761.722C626.728 756.83 628.359 752.604 631.621 749.046C635.179 745.488 639.405 743.708 644.297 743.708C649.19 743.708 653.416 745.488 656.974 749.046L743.708 835.78Z" fill="white"/>
</svg>
