<svg width="1024" height="1024" viewBox="0 0 1024 1024" fill="none" xmlns="http://www.w3.org/2000/svg">
<g clip-path="url(#clip0_15_11)">
<circle cx="512" cy="512" r="512" fill="#6A4BC1"/>
<path d="M355.333 794H292.667C275.433 794 260.681 787.864 248.408 775.592C236.136 763.319 230 748.567 230 731.333V512C230 472.833 237.442 436.147 252.325 401.942C267.208 367.736 287.314 337.969 312.642 312.642C337.969 287.314 367.736 267.208 401.942 252.325C436.147 237.442 472.833 230 512 230C551.167 230 587.853 237.442 622.058 252.325C656.264 267.208 686.031 287.314 711.358 312.642C736.686 337.969 756.792 367.736 771.675 401.942C786.558 436.147 794 472.833 794 512V731.333C794 748.567 787.864 763.319 775.592 775.592C763.319 787.864 748.567 794 731.333 794H668.667C651.433 794 636.681 787.864 624.408 775.592C612.136 763.319 606 748.567 606 731.333V606C606 588.767 612.136 574.014 624.408 561.742C636.681 549.469 651.433 543.333 668.667 543.333H731.333V512C731.333 450.9 710.053 399.069 667.492 356.508C624.931 313.947 573.1 292.667 512 292.667C450.9 292.667 399.069 313.947 356.508 356.508C313.947 399.069 292.667 450.9 292.667 512V543.333H355.333C372.567 543.333 387.319 549.469 399.592 561.742C411.864 574.014 418 588.767 418 606V731.333C418 748.567 411.864 763.319 399.592 775.592C387.319 787.864 372.567 794 355.333 794Z" fill="white"/>
<path d="M719.877 977.833C709.49 977.833 700.545 974.371 693.043 967.446C685.541 960.521 681.02 952.057 679.481 942.054L674.287 903.967C669.286 902.043 664.573 899.735 660.149 897.042C655.725 894.349 651.397 891.463 647.165 888.385L611.385 903.39C601.767 907.621 592.149 908.006 582.531 904.544C572.913 901.081 565.411 894.926 560.025 886.077L532.902 838.756C527.516 829.908 525.977 820.482 528.285 810.479C530.594 800.476 535.787 792.205 543.867 785.665L574.452 762.581C574.067 759.888 573.875 757.291 573.875 754.791V739.209C573.875 736.709 574.067 734.112 574.452 731.419L543.867 708.335C535.787 701.795 530.594 693.524 528.285 683.521C525.977 673.518 527.516 664.092 532.902 655.244L560.025 607.923C565.411 599.074 572.913 592.919 582.531 589.456C592.149 585.994 601.767 586.378 611.385 590.61L647.165 605.615C651.397 602.537 655.821 599.651 660.437 596.958C665.054 594.265 669.671 591.957 674.287 590.033L679.481 551.946C681.02 541.943 685.541 533.479 693.043 526.554C700.545 519.629 709.49 516.167 719.877 516.167H774.123C784.51 516.167 793.455 519.629 800.957 526.554C808.459 533.479 812.98 541.943 814.519 551.946L819.712 590.033C824.714 591.957 829.427 594.265 833.851 596.958C838.275 599.651 842.603 602.537 846.835 605.615L882.615 590.61C892.233 586.378 901.851 585.994 911.469 589.456C921.087 592.919 928.589 599.074 933.975 607.923L961.098 655.244C966.484 664.092 968.023 673.518 965.715 683.521C963.406 693.524 958.212 701.795 950.133 708.335L919.548 731.419C919.933 734.112 920.125 736.709 920.125 739.209V754.791C920.125 757.291 919.74 759.888 918.971 762.581L949.556 785.665C957.635 792.205 962.829 800.476 965.137 810.479C967.446 820.482 965.907 829.908 960.521 838.756L932.821 886.077C927.435 894.926 919.933 901.081 910.315 904.544C900.697 908.006 891.078 907.621 881.46 903.39L846.835 888.385C842.603 891.463 838.179 894.349 833.562 897.042C828.946 899.735 824.329 902.043 819.712 903.967L814.519 942.054C812.98 952.057 808.459 960.521 800.957 967.446C793.455 974.371 784.51 977.833 774.123 977.833H719.877ZM748.154 827.792C770.468 827.792 789.512 819.905 805.285 804.131C821.059 788.358 828.946 769.314 828.946 747C828.946 724.686 821.059 705.642 805.285 689.869C789.512 674.095 770.468 666.208 748.154 666.208C725.456 666.208 706.316 674.095 690.734 689.869C675.153 705.642 667.362 724.686 667.362 747C667.362 769.314 675.153 788.358 690.734 804.131C706.316 819.905 725.456 827.792 748.154 827.792Z" fill="#2E2E2E"/>
</g>
<defs>
<clipPath id="clip0_15_11">
<rect width="1024" height="1024" fill="white"/>
</clipPath>
</defs>
</svg>
