<svg width="38" height="38" viewBox="0 0 38 38" fill="none" xmlns="http://www.w3.org/2000/svg">
<path d="M16.175 17.825C15.3917 17.0417 15 16.1 15 15C15 13.9 15.3917 12.9583 16.175 12.175C16.9583 11.3917 17.9 11 19 11C20.1 11 21.0417 11.3917 21.825 12.175C22.6083 12.9583 23 13.9 23 15C23 16.1 22.6083 17.0417 21.825 17.825C21.0417 18.6083 20.1 19 19 19C17.9 19 16.9583 18.6083 16.175 17.825ZM11 25V24.2C11 23.6333 11.1458 23.1125 11.4375 22.6375C11.7292 22.1625 12.1167 21.8 12.6 21.55C13.6333 21.0333 14.6833 20.6458 15.75 20.3875C16.8167 20.1292 17.9 20 19 20C20.1 20 21.1833 20.1292 22.25 20.3875C23.3167 20.6458 24.3667 21.0333 25.4 21.55C25.8833 21.8 26.2708 22.1625 26.5625 22.6375C26.8542 23.1125 27 23.6333 27 24.2V25C27 25.55 26.8042 26.0208 26.4125 26.4125C26.0208 26.8042 25.55 27 25 27H13C12.45 27 11.9792 26.8042 11.5875 26.4125C11.1958 26.0208 11 25.55 11 25Z" fill="#F0ECF9"/>
</svg>
